<?xml version="1.0" encoding="UTF-8" standalone="no"?>
<svg
   version="1.1"
   width="45"
   height="45"
   id="svg12"
   sodipodi:docname="duck.svg"
   xml:space="preserve"
   inkscape:version="1.2.1 (9c6d41e, 2022-07-14)"
   xmlns:inkscape="http://www.inkscape.org/namespaces/inkscape"
   xmlns:sodipodi="http://sodipodi.sourceforge.net/DTD/sodipodi-0.dtd"
   xmlns="http://www.w3.org/2000/svg"
   xmlns:svg="http://www.w3.org/2000/svg"><defs
     id="defs16" /><sodipodi:namedview
     id="namedview14"
     pagecolor="#ffffff"
     bordercolor="#000000"
     borderopacity="0.25"
     inkscape:showpageshadow="2"
     inkscape:pageopacity="0.0"
     inkscape:pagecheckerboard="0"
     inkscape:deskcolor="#d1d1d1"
     showgrid="false"
     inkscape:zoom="9.5571548"
     inkscape:cx="34.267521"
     inkscape:cy="22.130017"
     inkscape:window-width="1470"
     inkscape:window-height="891"
     inkscape:window-x="0"
     inkscape:window-y="37"
     inkscape:window-maximized="1"
     inkscape:current-layer="svg12" /><path
     style="fill:#eeca30;fill-opacity:1;stroke:#000000;stroke-width:1.5;stroke-dasharray:none;stroke-opacity:1"
     d="m 12.608664,12.660082 -6.0383799,0.539143 c 0,0 1.1861102,4.313127 4.9600979,3.666159 3.773987,-0.64697 1.078282,-4.205302 1.078282,-4.205302 z"
     id="path10231"
     sodipodi:nodetypes="ccsc" /><path
     style="fill:#eeca30;fill-opacity:1;stroke:#000000;stroke-width:1.5;stroke-dasharray:none;stroke-opacity:1"
     d="m 36.438696,24.197701 c 0.332999,-3.003566 -0.637818,-8.290625 -4.097471,-8.087115 -1.833079,0.107828 -1.725251,2.587875 -1.725251,2.587875 0,0 -0.107828,2.587878 -4.2053,1.617425 -4.097472,-0.970454 -3.835976,-1.731905 -1.833079,-4.313129 2.002898,-2.581225 1.833079,-10.0280222 -6.146208,-9.5967093 -6.885896,0.3722105 -7.332319,4.2052993 -5.607067,7.0088323 1.933025,3.141164 -4.094887,5.046631 -2.9113614,11.753275 1.2939384,7.332318 12.3830434,10.96217 19.4090774,7.655802 5.499239,-2.587876 6.705901,-4.921294 7.11666,-8.626256 z"
     id="path4419"
     sodipodi:nodetypes="sscszsssss" /><path
     style="fill:#eeca30;fill-opacity:1;fill-rule:evenodd;stroke:#000000;stroke-width:1.5;stroke-linecap:round;stroke-linejoin:round;stroke-miterlimit:4;stroke-dasharray:none;stroke-opacity:1"
     d="M 34.162394,40.161283 H 11.55289 c 0,0 0.08532,-6.690356 3.643651,-6.798185 3.558331,-0.107827 8.626989,0.142001 14.448979,10e-7 4.420956,-0.107828 4.516874,6.798184 4.516874,6.798184 z"
     id="path338"
     sodipodi:nodetypes="ccssc" /><path
     style="fill:#eeca30;fill-opacity:1;stroke:#000000;stroke-width:1.5;stroke-dasharray:none;stroke-opacity:1"
     d="m 30.723803,27.109063 c 0,0 -0.862626,4.852268 -9.596711,3.127018 -8.831555,-1.744505 -4.723027,-10.502545 1.401768,-7.440148 5.175753,2.587879 8.194943,4.31313 8.194943,4.31313 z"
     id="path9503"
     sodipodi:nodetypes="cssc" /><ellipse
     style="fill:#070601;fill-opacity:1;stroke:none;stroke-width:10.2245;stroke-linecap:round;stroke-linejoin:round;stroke-dasharray:none;stroke-opacity:1"
     id="path10287"
     cx="16.544394"
     cy="11.204403"
     rx="1.1321962"
     ry="1.3478526" /></svg>
