<?xml version="1.0" encoding="UTF-8" standalone="no"?>
<svg
   version="1.1"
   width="45"
   height="45"
   id="svg12"
   sodipodi:docname="duck_large.svg"
   xml:space="preserve"
   inkscape:version="1.2.1 (9c6d41e, 2022-07-14)"
   xmlns:inkscape="http://www.inkscape.org/namespaces/inkscape"
   xmlns:sodipodi="http://sodipodi.sourceforge.net/DTD/sodipodi-0.dtd"
   xmlns="http://www.w3.org/2000/svg"
   xmlns:svg="http://www.w3.org/2000/svg"><defs
     id="defs16" /><sodipodi:namedview
     id="namedview14"
     pagecolor="#ffffff"
     bordercolor="#000000"
     borderopacity="0.25"
     inkscape:showpageshadow="2"
     inkscape:pageopacity="0.0"
     inkscape:pagecheckerboard="0"
     inkscape:deskcolor="#d1d1d1"
     showgrid="false"
     inkscape:zoom="9.5571548"
     inkscape:cx="34.267521"
     inkscape:cy="22.130017"
     inkscape:window-width="1470"
     inkscape:window-height="891"
     inkscape:window-x="0"
     inkscape:window-y="37"
     inkscape:window-maximized="1"
     inkscape:current-layer="svg12" /><path
     style="fill:#eeca30;fill-opacity:1;stroke:#000000;stroke-width:1.87552;stroke-dasharray:none;stroke-opacity:1"
     d="M 11.250642,9.7679741 3.9242218,10.422121 c 0,0 1.4391181,5.233156 6.0181311,4.448184 C 14.521365,14.08533 11.250642,9.7679741 11.250642,9.7679741 Z"
     id="path10231"
     sodipodi:nodetypes="ccsc" /><path
     style="fill:#eeca30;fill-opacity:1;stroke:#000000;stroke-width:1.87578;stroke-dasharray:none;stroke-opacity:1"
     d="m 40.163832,23.766671 c 0.404031,-3.644254 -0.77387,-10.05909 -4.971498,-9.812169 -2.224091,0.130828 -2.093262,3.139892 -2.093262,3.139892 0,0 -0.130829,3.139895 -5.102328,1.962436 -4.9715,-1.177461 -4.654224,-2.101336 -2.224091,-5.233158 C 28.202787,10.691849 27.996744,1.6565832 18.315404,2.1798989 9.9606847,2.6315053 9.4190357,7.2822261 11.512299,10.683778 13.857656,14.49498 6.5439364,16.8069 7.9799186,24.944131 c 1.569947,8.896367 15.0244564,13.300499 23.5492064,9.288853 6.672276,-3.139893 8.13633,-5.97105 8.634707,-10.466313 z"
     id="path4419"
     sodipodi:nodetypes="sscszsssss" /><path
     style="fill:#eeca30;fill-opacity:1;fill-rule:evenodd;stroke:#000000;stroke-width:1.87552;stroke-linecap:round;stroke-linejoin:round;stroke-miterlimit:4;stroke-dasharray:none;stroke-opacity:1"
     d="M 37.401975,43.135427 H 9.969662 c 0,0 0.103519,-8.117469 4.420874,-8.248298 4.317355,-0.130828 10.467203,0.172291 17.531075,10e-7 5.363986,-0.130829 5.480364,8.248297 5.480364,8.248297 z"
     id="path338"
     sodipodi:nodetypes="ccssc" /><path
     style="fill:#eeca30;fill-opacity:1;stroke:#000000;stroke-width:1.87552;stroke-dasharray:none;stroke-opacity:1"
     d="m 33.229902,27.299052 c 0,0 -1.046632,5.8873 -11.643776,3.794039 -10.715404,-2.116624 -5.73049,-12.742832 1.700778,-9.027198 6.279787,3.139897 9.942998,5.233159 9.942998,5.233159 z"
     id="path9503"
     sodipodi:nodetypes="cssc" /><ellipse
     style="fill:#070601;fill-opacity:1;stroke:none;stroke-width:12.4055;stroke-linecap:round;stroke-linejoin:round;stroke-dasharray:none;stroke-opacity:1"
     id="path10287"
     cx="16.025898"
     cy="8.0017862"
     rx="1.3737037"
     ry="1.6353616" /></svg>
